<svg width="120" height="120" viewBox="0 0 120 120" fill="none" xmlns="http://www.w3.org/2000/svg">
<rect x="2" y="2" width="116" height="116" rx="2" fill="#0A9418" fill-opacity="0.75" stroke="#06600F" stroke-width="4"/>
<path d="M58.0263 50.2263C58.0263 51.6065 57.6812 52.8305 56.9911 53.8982C56.301 54.9659 55.3505 55.8188 54.1396 56.4568C55.5198 57.1208 56.6135 58.0388 57.4208 59.2107C58.2281 60.3695 58.6318 61.7367 58.6318 63.3123C58.6318 65.8383 57.7724 67.837 56.0536 69.3083C54.3349 70.7667 51.9977 71.4958 49.0419 71.4958C46.0862 71.4958 43.7424 70.7602 42.0107 69.2888C40.2789 67.8175 39.413 65.8253 39.413 63.3123C39.413 61.7367 39.8167 60.363 40.624 59.1912C41.4312 58.0193 42.5185 57.1078 43.8857 56.4568C42.6747 55.8188 41.7242 54.9659 41.0341 53.8982C40.357 52.8305 40.0185 51.6065 40.0185 50.2263C40.0185 47.8044 40.8258 45.8774 42.4404 44.4451C44.0549 42.9998 46.249 42.2771 49.0224 42.2771C51.7828 42.2771 53.9703 42.9932 55.5849 44.4255C57.2125 45.8448 58.0263 47.7784 58.0263 50.2263ZM52.9677 62.9021C52.9677 61.6651 52.6096 60.6755 51.8935 59.9333C51.1773 59.1912 50.2138 58.8201 49.0029 58.8201C47.8049 58.8201 46.8479 59.1912 46.1318 59.9333C45.4156 60.6625 45.0575 61.6521 45.0575 62.9021C45.0575 64.113 45.4091 65.0896 46.1122 65.8318C46.8154 66.574 47.7919 66.9451 49.0419 66.9451C50.2659 66.9451 51.2229 66.587 51.913 65.8708C52.6161 65.1547 52.9677 64.1651 52.9677 62.9021ZM52.3818 50.4998C52.3818 49.393 52.0888 48.5076 51.5029 47.8435C50.9169 47.1664 50.0901 46.8279 49.0224 46.8279C47.9677 46.8279 47.1474 47.1534 46.5615 47.8044C45.9755 48.4555 45.6825 49.3539 45.6825 50.4998C45.6825 51.6326 45.9755 52.544 46.5615 53.2341C47.1474 53.9242 47.9742 54.2693 49.0419 54.2693C50.1096 54.2693 50.9299 53.9242 51.5029 53.2341C52.0888 52.544 52.3818 51.6326 52.3818 50.4998ZM80.995 50.2263C80.995 51.6065 80.65 52.8305 79.9599 53.8982C79.2698 54.9659 78.3193 55.8188 77.1083 56.4568C78.4885 57.1208 79.5823 58.0388 80.3896 59.2107C81.1969 60.3695 81.6005 61.7367 81.6005 63.3123C81.6005 65.8383 80.7411 67.837 79.0224 69.3083C77.3036 70.7667 74.9664 71.4958 72.0107 71.4958C69.0549 71.4958 66.7112 70.7602 64.9794 69.2888C63.2477 67.8175 62.3818 65.8253 62.3818 63.3123C62.3818 61.7367 62.7854 60.363 63.5927 59.1912C64.4 58.0193 65.4872 57.1078 66.8544 56.4568C65.6435 55.8188 64.693 54.9659 64.0029 53.8982C63.3258 52.8305 62.9872 51.6065 62.9872 50.2263C62.9872 47.8044 63.7945 45.8774 65.4091 44.4451C67.0237 42.9998 69.2177 42.2771 71.9911 42.2771C74.7516 42.2771 76.9391 42.9932 78.5536 44.4255C80.1812 45.8448 80.995 47.7784 80.995 50.2263ZM75.9365 62.9021C75.9365 61.6651 75.5784 60.6755 74.8622 59.9333C74.1461 59.1912 73.1825 58.8201 71.9716 58.8201C70.7737 58.8201 69.8167 59.1912 69.1005 59.9333C68.3844 60.6625 68.0263 61.6521 68.0263 62.9021C68.0263 64.113 68.3779 65.0896 69.081 65.8318C69.7841 66.574 70.7607 66.9451 72.0107 66.9451C73.2346 66.9451 74.1917 66.587 74.8818 65.8708C75.5849 65.1547 75.9365 64.1651 75.9365 62.9021ZM75.3505 50.4998C75.3505 49.393 75.0575 48.5076 74.4716 47.8435C73.8857 47.1664 73.0589 46.8279 71.9911 46.8279C70.9365 46.8279 70.1161 47.1534 69.5302 47.8044C68.9443 48.4555 68.6513 49.3539 68.6513 50.4998C68.6513 51.6326 68.9443 52.544 69.5302 53.2341C70.1161 53.9242 70.943 54.2693 72.0107 54.2693C73.0784 54.2693 73.8987 53.9242 74.4716 53.2341C75.0575 52.544 75.3505 51.6326 75.3505 50.4998Z" fill="white"/>
</svg>
